<?xml version="1.0" standalone="no"?>
<!DOCTYPE svg PUBLIC "-//W3C//DTD SVG 20010904//EN"
 "http://www.w3.org/TR/2001/REC-SVG-20010904/DTD/svg10.dtd">
<svg version="1.0" xmlns="http://www.w3.org/2000/svg"
 width="700.000000pt" height="700.000000pt" viewBox="0 0 700.000000 700.000000"
 preserveAspectRatio="xMidYMid meet">
<metadata>
Created by potrace 1.14, written by Peter Selinger 2001-2017
</metadata>
<g transform="translate(0.000000,700.000000) scale(0.100000,-0.100000)"
fill="#000000" stroke="none">
<path d="M1957 6124 c-1 -2 -32 -5 -67 -8 -66 -6 -75 -7 -169 -27 -536 -111
-985 -505 -1176 -1029 -15 -41 -29 -83 -31 -92 -2 -10 -6 -26 -8 -35 -62 -240
-69 -503 -21 -740 47 -229 153 -457 303 -653 41 -53 570 -590 1389 -1409
l1323 -1325 1338 1340 c1453 1455 1411 1409 1531 1644 125 244 175 454 176
730 1 435 -162 828 -470 1135 -303 302 -700 467 -1125 469 -98 0 -193 -7 -265
-19 -101 -17 -293 -71 -309 -86 -6 -5 -16 -9 -23 -9 -19 0 -137 -58 -233 -114
-127 -74 -205 -140 -423 -355 l-197 -196 -183 182 c-210 209 -194 195 -272
256 -33 26 -64 51 -70 55 -5 5 -44 29 -85 53 -199 121 -433 201 -658 225 -61
6 -270 12 -275 8z"/>
</g>
</svg>
